<?xml version="1.0" encoding="UTF-8"?>
<svg width="183px" height="108px" viewBox="0 0 183 108" version="1.1" xmlns="http://www.w3.org/2000/svg" xmlns:xlink="http://www.w3.org/1999/xlink">
    <!-- Generator: Sketch 53.2 (72643) - https://sketchapp.com -->
    <title>Brand/Wordmark</title>
    <desc>Created with Sketch.</desc>
    <g id="Syle-Guide" stroke="none" stroke-width="1" fill="none" fill-rule="evenodd">
        <g id="fg_mark_white" transform="translate(-20.000000, -20.000000)" fill="#FFFFFF">
            <g id="Brand/Logomark" transform="translate(20.000000, 20.000000)">
                <g id="⚙️/Brandmark/White">
                    <path d="M183,47.9593253 C180.400514,62.6964288 177.337239,75.2899535 166.381449,87.8834783 C154.300243,101.681954 138.498998,107.708333 121.643687,107.708333 C89.9374124,107.708333 71.2772188,86.1393848 76.2994331,54.3900613 C81.4902977,21.5705725 107.108942,0 139.614685,0 C160.352197,0 174.920997,9.37653283 180.629165,28.267632 L154.094295,38.7175781 C152.005624,29.071474 145.397448,22.6407379 134.82923,22.6407379 C117.573375,22.6407379 106.004606,39.1186871 103.567284,54.5264709 C101.08942,70.1973302 107.932734,86.1393848 125.186968,86.1393848 C136.557896,86.1393848 146.187185,80.2461673 149.10127,68.5896462 L127.698885,68.5896462 L130.96,47.9593253 L183,47.9593253" id="Fill-1"></path>
                    <path d="M69.6601516,51.9571677 C70.1063283,49.1250804 70.7190131,46.3821543 71.4610244,43.7219051 L71.4691073,43.6327438 L35.8962119,43.6327438 L38.5587231,26.7828778 L78.7259456,26.7828778 L78.9668164,26.5688907 C84.8915908,17.0707797 93.1135288,9.56339764 102.9375,4.58333333 L15.9249531,4.58333333 L0,105.416667 L26.1385206,105.416667 L32.3898447,65.8322883 L68.9941196,65.8322883 C68.6821192,61.474732 68.8906584,56.8383441 69.6601516,51.9571677" id="Fill-2"></path>
                </g>
            </g>
        </g>
    </g>
</svg>