<?xml version="1.0" encoding="UTF-8"?>
<svg width="871px" height="109px" viewBox="0 0 871 109" version="1.1" xmlns="http://www.w3.org/2000/svg" xmlns:xlink="http://www.w3.org/1999/xlink">
    <!-- Generator: Sketch 53.2 (72643) - https://sketchapp.com -->
    <title>Brand/Wordmark</title>
    <desc>Created with Sketch.</desc>
    <g id="Syle-Guide" stroke="none" stroke-width="1" fill="none" fill-rule="evenodd">
        <g id="fg_logo_black" transform="translate(-20.000000, -21.000000)" fill="#170710">
            <g id="Brand/Wordmark" transform="translate(20.000000, 20.000000)">
                <g id="⚙️/Wordmark/Dark">
                    <polyline id="Fill-1" points="38.9786818 27.0033333 36.2909545 44.0633333 65.2653182 44.0633333 61.7215 66.5366667 32.7405 66.5366667 26.4160455 106.613333 0 106.613333 16.1097727 4.52333333 74.4699545 4.52333333 70.9228182 27.0033333 38.9786818 27.0033333"></polyline>
                    <path d="M177.317,4.52333333 L168.258364,61.9333333 C166.187818,75.07 163.596318,88.0666667 151.926273,97.95 C142.111091,106.343333 128.2975,109.323333 116.438318,109.323333 C104.579136,109.323333 91.7045909,106.343333 84.5406364,97.95 C75.9863636,88.0666667 77.4994545,75.07 79.5733182,61.9333333 L88.6319545,4.52333333 L115.051318,4.52333333 L106.566727,58.2766667 C104.472955,71.5466667 103.129091,86.0366667 120.111545,86.0366667 C137.094,86.0366667 140.325909,71.5466667 142.419682,58.2766667 L150.900955,4.52333333 L177.317,4.52333333" id="Fill-2"></path>
                    <polyline id="Fill-3" points="221.067227 106.613333 194.651182 106.613333 207.213818 27.0033333 185.380182 27.0033333 188.927318 4.52333333 259.013955 4.52333333 255.4635 27.0033333 233.629864 27.0033333 221.067227 106.613333"></polyline>
                    <path d="M359.435409,4.52333333 L350.376773,61.9333333 C348.306227,75.07 345.714727,88.0666667 334.044682,97.95 C324.2295,106.343333 310.415909,109.323333 298.556727,109.323333 C286.694227,109.323333 273.819682,106.343333 266.655727,97.95 C258.104773,88.0666667 259.617864,75.07 261.691727,61.9333333 L270.750364,4.52333333 L297.169727,4.52333333 L288.685136,58.2766667 C286.591364,71.5466667 285.2475,86.0366667 302.229955,86.0366667 C319.212409,86.0366667 322.444318,71.5466667 324.538091,58.2766667 L333.019364,4.52333333 L359.435409,4.52333333" id="Fill-4"></path>
                    <path d="M395.358045,50.29 L397.923,50.29 C406.546955,50.29 416.508136,48.6666667 418.260136,37.56 C420.012136,26.4633333 410.561955,24.8333333 401.938,24.8333333 L399.376364,24.8333333 L395.358045,50.29 Z M444.560045,106.613333 L411.673545,106.613333 L392.939091,67.35 L392.670318,67.35 L386.471955,106.613333 L360.055909,106.613333 L376.165682,4.52333333 L415.658682,4.52333333 C435.737,4.52333333 449.451045,14.1366667 446.010091,35.9366667 C443.790227,50.02 434.051364,62.2033333 419.222409,64.78 L444.560045,106.613333 L444.560045,106.613333 Z" id="Fill-5"></path>
                    <polyline id="Fill-6" points="490.699364 27.0033333 488.008318 44.0633333 517.795636 44.0633333 514.2485 66.5366667 484.461182 66.5366667 481.683864 84.1366667 513.087136 84.1366667 509.543318 106.613333 451.720682 106.613333 467.830455 4.52333333 525.649773 4.52333333 522.105955 27.0033333 490.699364 27.0033333"></polyline>
                    <path d="M636.208273,49.6133333 C633.590227,64.5066667 630.504318,77.2333333 619.468045,89.96 C607.293636,103.906667 591.369682,110 574.383909,110 C542.446409,110 523.645591,88.2 528.709136,56.1133333 C533.941909,22.94 559.757364,1.14 592.507818,1.14 C613.399091,1.14 628.078727,10.62 633.825818,29.71 L607.091227,40.27 C604.9875,30.52 598.331227,24.0233333 587.683182,24.0233333 C570.299227,24.0233333 558.639136,40.6766667 556.180364,56.2466667 C553.681773,72.09 560.573636,88.2 577.960909,88.2 C589.418591,88.2 599.120955,82.2433333 602.054227,70.4633333 L580.489364,70.4633333 L583.784318,49.6133333 L636.208273,49.6133333" id="Fill-7"></path>
                    <path d="M670.070318,53.81 C667.293,71.4133333 678.203182,84.2733333 693.971182,84.2733333 C709.739182,84.2733333 724.7075,71.4133333 727.484818,53.81 C729.708,39.73 718.797818,26.8666667 703.029818,26.8666667 C687.2585,26.8666667 672.290182,39.73 670.070318,53.81 Z M755.0025,53.6766667 C749.789636,86.7133333 722.527455,110 689.909727,110 C657.295318,110 637.382909,86.7133333 642.595773,53.6766667 C647.466864,22.8033333 677.8415,1.14 707.091273,1.14 C736.334409,1.14 759.873591,22.8033333 755.0025,53.6766667 L755.0025,53.6766667 Z" id="Fill-8"></path>
                    <polyline id="Fill-9" points="807.844545 66.5366667 842.297227 4.52333333 871.002818 4.52333333 811.497864 106.613333 791.008091 106.613333 764.392955 4.52333333 793.101864 4.52333333 807.844545 66.5366667"></polyline>
                </g>
            </g>
        </g>
    </g>
</svg>